<?xml version="1.0"?>
<svg xmlns="http://www.w3.org/2000/svg" xmlns:xlink="http://www.w3.org/1999/xlink" xmlns:svgjs="http://svgjs.com/svgjs" version="1.1" width="512" height="512" x="0" y="0" viewBox="0 0 512 512" style="enable-background:new 0 0 512 512" xml:space="preserve" class=""><g><g xmlns="http://www.w3.org/2000/svg"><path d="m437 391c-8.284 0-15 6.716-15 15v30c0 8.284 6.716 15 15 15s15-6.716 15-15v-30c0-8.284-6.716-15-15-15z" fill="#21a7d0" data-original="#000000" style="" class=""/><circle cx="437" cy="136" r="15" fill="#21a7d0" data-original="#000000" style="" class=""/><circle cx="437" cy="346" r="15" fill="#21a7d0" data-original="#000000" style="" class=""/><path d="m497 1h-202c-8.284 0-15 6.716-15 15v105h-235c-24.813 0-45 20.187-45 45v220c0 24.813 20.187 45 45 45h96v.279c0 20.748-10.944 39.503-28.771 49.721h-16.229c-8.284 0-15 6.716-15 15s6.716 15 15 15h401c8.284 0 15-6.716 15-15v-480c0-8.284-6.716-15-15-15zm-15 30v30h-172v-30zm-172 60h172v120h-90v-45c0-24.813-20.187-45-45-45h-37zm82 150h90v30h-90zm-347-90h302c8.271 0 15 6.729 15 15v175h-332v-175c0-8.271 6.729-15 15-15zm-15 235v-15h332v15c0 8.271-6.729 15-15 15h-302c-8.271 0-15-6.729-15-15zm250 95h-.229c-17.827-10.219-28.771-28.973-28.771-49.721v-.279h29zm-109-49.721v-.279h50v.279c0 18.217 5.538 35.429 15.429 49.721h-80.858c9.891-14.292 15.429-31.504 15.429-49.721zm139 49.721v-50h37c24.813 0 45-20.187 45-45v-85h90v180z" fill="#21a7d0" data-original="#000000" style="" class=""/></g></g></svg>
